<svg width="48" height="50" viewBox="0 0 48 50" fill="none" xmlns="http://www.w3.org/2000/svg">
<path d="M28.0504 48.4834C26.7908 50.0695 24.2371 49.2005 24.2067 47.1752L23.7629 17.5532H43.6808C47.2884 17.5532 49.3005 21.7201 47.0572 24.5455L28.0504 48.4834Z" fill="url(#paint0_linear_8_381)"/>
<path d="M28.0504 48.4834C26.7908 50.0695 24.2371 49.2005 24.2067 47.1752L23.7629 17.5532H43.6808C47.2884 17.5532 49.3005 21.7201 47.0572 24.5455L28.0504 48.4834Z" fill="url(#paint1_linear_8_381)" fill-opacity="0.2"/>
<path d="M19.9498 0.819203C21.2093 -0.767097 23.7632 0.102081 23.7935 2.12738L23.988 31.7494H4.31943C0.711673 31.7494 -1.30044 27.5825 0.942971 24.7571L19.9498 0.819203Z" fill="#3ECF8E"/>
<defs>
<linearGradient id="paint0_linear_8_381" x1="23.7629" y1="24.1212" x2="41.4652" y2="31.5455" gradientUnits="userSpaceOnUse">
<stop stop-color="#249361"/>
<stop offset="1" stop-color="#3ECF8E"/>
</linearGradient>
<linearGradient id="paint1_linear_8_381" x1="15.9147" y1="13.3755" x2="23.9878" y2="28.5728" gradientUnits="userSpaceOnUse">
<stop/>
<stop offset="1" stop-opacity="0"/>
</linearGradient>
</defs>
</svg>
