<svg width="32" height="32" viewBox="0 0 48 48" fill="none" xmlns="http://www.w3.org/2000/svg">
<path d="M23.7717 4.59307C22.1884 4.60057 20.6772 4.7352 19.3467 4.9707C15.428 5.66295 14.717 7.11195 14.717 9.78457V13.3137H23.9768V14.4901H11.2415C8.55045 14.4901 6.19395 16.1074 5.4567 19.1854C4.6062 22.7123 4.5687 24.9136 5.4567 28.5964C6.11483 31.3381 7.68683 33.2911 10.3782 33.2911H13.5623V29.0603C13.5623 26.0037 16.2065 23.3078 19.3471 23.3078H28.5965C31.1712 23.3078 33.2262 21.1876 33.2262 18.6023V9.78495C33.2262 7.27507 31.109 5.38995 28.5965 4.97107C27.005 4.70632 25.3546 4.58595 23.7717 4.59307ZM18.764 7.43145C19.7202 7.43145 20.5017 8.22532 20.5017 9.20182C20.5017 10.1742 19.7206 10.9606 18.764 10.9606C17.804 10.9606 17.0266 10.1742 17.0266 9.20182C17.0262 8.22532 17.804 7.43145 18.764 7.43145Z" fill="url(#paint0_linear_3_212)"/>
<path d="M34.3807 14.4901V18.6024C34.3807 21.7899 31.6777 24.473 28.5959 24.473H19.3465C16.813 24.473 14.7168 26.6416 14.7168 29.1789V37.997C14.7168 40.5061 16.8985 41.9825 19.3465 42.7021C22.2775 43.5635 25.0885 43.7195 28.5959 42.7021C30.9269 42.0267 33.2257 40.6685 33.2257 37.997V34.4675H23.9767V33.2907H37.8562C40.5472 33.2907 41.5507 31.4139 42.4867 28.5961C43.4534 25.6955 43.4118 22.9059 42.4867 19.1851C41.8214 16.5057 40.5513 14.4897 37.8562 14.4897H34.3807V14.4901ZM29.1783 36.8202C30.1387 36.8202 30.916 37.6066 30.916 38.5798C30.916 39.5555 30.1383 40.3494 29.1783 40.3494C28.222 40.3494 27.4409 39.5555 27.4409 38.5798C27.4409 37.6066 28.222 36.8202 29.1783 36.8202Z" fill="url(#paint1_linear_3_212)"/>
<path opacity="0.444" d="M36.491 44.8488C36.491 46.1774 30.935 47.2548 24.0819 47.2548C17.2284 47.2548 11.6724 46.1774 11.6724 44.8488C11.6724 43.5198 17.228 42.4424 24.0819 42.4424C30.935 42.4424 36.491 43.5194 36.491 44.8488Z" fill="url(#paint2_radial_3_212)"/>
<defs>
<linearGradient id="paint0_linear_3_212" x1="3.8764" y1="5.69656" x2="25.2341" y2="23.9103" gradientUnits="userSpaceOnUse">
<stop stop-color="#5A9FD4"/>
<stop offset="1" stop-color="#306998"/>
</linearGradient>
<linearGradient id="paint1_linear_3_212" x1="33.2695" y1="35.2323" x2="25.6103" y2="24.4915" gradientUnits="userSpaceOnUse">
<stop stop-color="#FFD43B"/>
<stop offset="1" stop-color="#FFE873"/>
</linearGradient>
<radialGradient id="paint2_radial_3_212" cx="0" cy="0" r="1" gradientUnits="userSpaceOnUse" gradientTransform="translate(24.0317 44.7799) rotate(-90) scale(2.40687 10.5802)">
<stop stop-color="#B8B8B8" stop-opacity="0.498"/>
<stop offset="1" stop-color="#7F7F7F" stop-opacity="0"/>
</radialGradient>
</defs>
</svg>
